<svg width="25" height="19" viewBox="0 0 25 19" fill="none" xmlns="http://www.w3.org/2000/svg">
<path d="M25 8.77853C25 12.2551 19.4036 15.0735 12.5 15.0735C5.59644 15.0735 0 12.2551 0 8.77853M24.5 8.59867C24.5 10.0475 23.3215 11.4916 21.1139 12.6033C18.9353 13.7005 15.8905 14.3936 12.5 14.3936C9.10951 14.3936 6.06474 13.7005 3.88606 12.6033C1.67848 11.4916 0.5 10.0475 0.5 8.59867C0.5 7.1499 1.67848 5.70576 3.88606 4.59403C6.06474 3.49685 9.10951 2.80371 12.5 2.80371C15.8905 2.80371 18.9353 3.49685 21.1139 4.59403C23.3215 5.70576 24.5 7.1499 24.5 8.59867Z" stroke="#1F1D1E"/>
<path d="M24.5 8.5V13.0678C24.5 16.3441 18.6274 18.5 12 18.5C5.37258 18.5 0.5 16.3441 0.5 13.0678V8.5" stroke="#1F1D1E"/>
<path d="M12.5 0C7.4759 0 3.4031 2.05105 3.4031 4.58115L3.40308 7.7225C3.40308 10.2526 7.47588 12.3037 12.4999 12.3037C17.524 12.3037 21.5968 10.2526 21.5968 7.7225L21.5968 4.58115C21.5968 2.05105 17.524 0 12.5 0Z" fill="#1F1D1E"/>
</svg>
