<svg width="108" height="83" viewBox="0 0 108 83" fill="none" xmlns="http://www.w3.org/2000/svg" fill="#FFFDF8">
<g filter="url(#filter0_d)">
<path d="M50.2608 43.2231C48.5797 41.9093 48.5797 40.0907 50.2608 38.7769L92.8928 5.45776C96.4769 2.65661 104 4.16235 104 7.68086L104 74.3191C104 77.8376 96.4769 79.3434 92.8928 76.5422L50.2608 43.2231Z" />
</g>
<g filter="url(#filter1_d)">
<path d="M57.7394 38.7769C59.4205 40.0907 59.4205 41.9093 57.7395 43.2231L15.1075 76.5422C11.5234 79.3434 4.00024 77.8376 4.00024 74.3191L4.00024 7.68086C4.00024 4.16236 11.5234 2.6566 15.1075 5.45776L57.7394 38.7769Z"/>
</g>
<g filter="url(#filter2_d)">
<path d="M50.9958 37.9628C52.7713 36.6791 55.2287 36.6791 57.0042 37.9628L102.03 70.5181C105.815 73.2551 103.781 79 99.0259 79L8.97414 79C4.2194 79 2.1846 73.2551 5.96995 70.5181L50.9958 37.9628Z" />
</g>
<g filter="url(#filter3_d)">
<path d="M57.0042 45.0372C55.2287 46.3209 52.7713 46.3209 50.9958 45.0372L5.96995 12.4819C2.1846 9.74494 4.21939 4 8.97413 4L99.0259 4.00002C103.781 4.00002 105.815 9.74496 102.03 12.4819L57.0042 45.0372Z" />
</g>
<defs>
<filter id="filter0_d" x="45" y="0" width="63" height="82" filterUnits="userSpaceOnUse" color-interpolation-filters="sRGB">
<feFlood flood-opacity="0" result="BackgroundImageFix"/>
<feColorMatrix in="SourceAlpha" type="matrix" values="0 0 0 0 0 0 0 0 0 0 0 0 0 0 0 0 0 0 127 0"/>
<feOffset/>
<feGaussianBlur stdDeviation="2"/>
<feColorMatrix type="matrix" values="0 0 0 0 0 0 0 0 0 0 0 0 0 0 0 0 0 0 0.25 0"/>
<feBlend mode="normal" in2="BackgroundImageFix" result="effect1_dropShadow"/>
<feBlend mode="normal" in="SourceGraphic" in2="effect1_dropShadow" result="shape"/>
</filter>
<filter id="filter1_d" x="0.000244141" y="0" width="63" height="82" filterUnits="userSpaceOnUse" color-interpolation-filters="sRGB">
<feFlood flood-opacity="0" result="BackgroundImageFix"/>
<feColorMatrix in="SourceAlpha" type="matrix" values="0 0 0 0 0 0 0 0 0 0 0 0 0 0 0 0 0 0 127 0"/>
<feOffset/>
<feGaussianBlur stdDeviation="2"/>
<feColorMatrix type="matrix" values="0 0 0 0 0 0 0 0 0 0 0 0 0 0 0 0 0 0 0.25 0"/>
<feBlend mode="normal" in2="BackgroundImageFix" result="effect1_dropShadow"/>
<feBlend mode="normal" in="SourceGraphic" in2="effect1_dropShadow" result="shape"/>
</filter>
<filter id="filter2_d" x="0" y="33" width="108" height="50" filterUnits="userSpaceOnUse" color-interpolation-filters="sRGB">
<feFlood flood-opacity="0" result="BackgroundImageFix"/>
<feColorMatrix in="SourceAlpha" type="matrix" values="0 0 0 0 0 0 0 0 0 0 0 0 0 0 0 0 0 0 127 0"/>
<feOffset/>
<feGaussianBlur stdDeviation="2"/>
<feColorMatrix type="matrix" values="0 0 0 0 0 0 0 0 0 0 0 0 0 0 0 0 0 0 0.25 0"/>
<feBlend mode="normal" in2="BackgroundImageFix" result="effect1_dropShadow"/>
<feBlend mode="normal" in="SourceGraphic" in2="effect1_dropShadow" result="shape"/>
</filter>
<filter id="filter3_d" x="0" y="0" width="108" height="50" filterUnits="userSpaceOnUse" color-interpolation-filters="sRGB">
<feFlood flood-opacity="0" result="BackgroundImageFix"/>
<feColorMatrix in="SourceAlpha" type="matrix" values="0 0 0 0 0 0 0 0 0 0 0 0 0 0 0 0 0 0 127 0"/>
<feOffset/>
<feGaussianBlur stdDeviation="2"/>
<feColorMatrix type="matrix" values="0 0 0 0 0 0 0 0 0 0 0 0 0 0 0 0 0 0 0.25 0"/>
<feBlend mode="normal" in2="BackgroundImageFix" result="effect1_dropShadow"/>
<feBlend mode="normal" in="SourceGraphic" in2="effect1_dropShadow" result="shape"/>
</filter>
</defs>
</svg>
