<svg width="27" height="27" viewBox="0 0 27 27" fill="none" xmlns="http://www.w3.org/2000/svg">
<path d="M7 6H3C1.89543 6 1 6.89543 1 8V18C1 19.1046 1.89543 20 3 20H7V18H3L3 8H7V6Z" fill="#1F1D1E"/>
<path d="M10 18H24V8H10V6H24C25.1046 6 26 6.89543 26 8V18C26 19.1046 25.1046 20 24 20H10V18Z" fill="#1F1D1E"/>
<path d="M8.5 1V26M8.5 1H6M8.5 1H11M8.5 26H6M8.5 26H11M7 6H3C1.89543 6 1 6.89543 1 8V18C1 19.1046 1.89543 20 3 20H7V18H3L3 8H7V6ZM10 18H24V8H10V6H24C25.1046 6 26 6.89543 26 8V18C26 19.1046 25.1046 20 24 20H10V18Z" stroke="#1F1D1E"/>
</svg>
